<svg id="Слой_1" data-name="Слой 1" xmlns="http://www.w3.org/2000/svg" xmlns:xlink="http://www.w3.org/1999/xlink" viewBox="0 0 195.46 68.18"><defs><style>.cls-1 { fill: none; } .cls-2 { clip-path: url(#clip-path); } .cls-3 { fill: url(#Безымянный_градиент); } .cls-4 { clip-path: url(#clip-path-2); } .cls-5 { fill: url(#Безымянный_градиент_2); } .cls-6 { fill: #fff; } .cls-7 { clip-path: url(#clip-path-3); } .cls-8 { fill: url(#Безымянный_градиент_3); } .cls-9 { clip-path: url(#clip-path-4); } .cls-10 { fill: url(#Безымянный_градиент_4); } .cls-11 { clip-path: url(#clip-path-5); } .cls-12 { fill: url(#Безымянный_градиент_5); } .cls-13 { clip-path: url(#clip-path-6); } .cls-14 { fill: url(#Безымянный_градиент_6); } .cls-15 { fill: #273b6f; } .cls-16 { clip-path: url(#clip-path-7); } .cls-17 { isolation: isolate; } .cls-18 { fill: #293d71; }</style><clipPath id="clip-path"><path class="cls-1" d="M.06 23.52L0 43.6l31.79-31.72L21.75 1.85.06 23.52z"/></clipPath><linearGradient id="Безымянный_градиент" data-name="Безымянный градиент" x1="-305.47" y1="10.16" x2="-304.47" y2="10.16" gradientTransform="rotate(-90 -5286.03 -4959.96) scale(33.67)" gradientUnits="userSpaceOnUse"><stop offset="0" stop-color="#273b6f"/><stop offset=".29" stop-color="#27386b"/><stop offset=".58" stop-color="#262e5f"/><stop offset=".87" stop-color="#241f4b"/><stop offset=".99" stop-color="#231640"/><stop offset="1" stop-color="#231640"/></linearGradient><clipPath id="clip-path-2"><path class="cls-1" d="M35.04 55.26l2.43 2.43.01-4.86-2.44 2.43z"/></clipPath><linearGradient id="Безымянный_градиент_2" data-name="Безымянный градиент 2" x1="-466.11" y1="165.28" x2="-465.11" y2="165.28" gradientTransform="matrix(0 -1.3 1.3 0 -180.26 -555.04)" gradientUnits="userSpaceOnUse"><stop offset="0" stop-color="#cab181"/><stop offset=".53" stop-color="#cab181"/><stop offset=".92" stop-color="#977d5d"/><stop offset="1" stop-color="#977d5d"/></linearGradient><clipPath id="clip-path-3"><path class="cls-1" d="M44.41 45.92v18.74l.78.78 6.96-7.06-.06-20.03-.05-.05-7.63 7.62z"/></clipPath><linearGradient id="Безымянный_градиент_3" data-name="Безымянный градиент 3" x1="-341.9" y1="42.03" x2="-340.9" y2="42.03" gradientTransform="matrix(0 -5.5 5.5 0 -182.48 -1826.01)" xlink:href="#Безымянный_градиент_2"/><clipPath id="clip-path-4"><path class="cls-1" d="M59.49 31.91l.02 20.05 7.22-7.32.03-19.98-7.27 7.25z"/></clipPath><linearGradient id="Безымянный_градиент_4" data-name="Безымянный градиент 4" x1="-342.33" y1="42.69" x2="-341.33" y2="42.69" gradientTransform="rotate(-90 -994.97 -826.29) scale(5.43)" xlink:href="#Безымянный_градиент_2"/><clipPath id="clip-path-5"><path class="cls-1" d="M23.42.1l31.73 31.83 10.02-10.08L43.41.23 23.42.1z"/></clipPath><linearGradient id="Безымянный_градиент_5" data-name="Безымянный градиент 5" x1="-304.44" y1="9.5" x2="-303.44" y2="9.5" gradientTransform="matrix(0 -36.5 36.5 0 -302.32 -11075.57)" xlink:href="#Безымянный_градиент"/><clipPath id="clip-path-6"><path class="cls-1" d="M1.69 45.33l21.76 21.76 19.93.05-31.6-31.79-10.09 9.98z"/></clipPath><linearGradient id="Безымянный_градиент_6" data-name="Безымянный градиент 6" x1="-302.44" y1="11.34" x2="-301.44" y2="11.34" gradientTransform="matrix(30.7 0 0 30.7 9289.17 -296.81)" xlink:href="#Безымянный_градиент"/><clipPath id="clip-path-7"><path class="cls-1" d="M0 0h195.46v68.18H0z"/></clipPath></defs><title>LOGO SVG-01</title><path class="cls-2 cls-3" d="M-11.13 5.062L29.348-6.62l13.57 47.01-40.48 11.683z"/><path class="cls-4 cls-5" d="M32.606 55.27l3.648-3.65 3.65 3.65-3.65 3.648z"/><path class="cls-6" d="M37.48 52.83l6.93-6.91v18.74l-6.94-6.97.01-4.86z"/><path class="cls-7 cls-8" d="M30.832 51.876L48.277 34.43 65.72 51.877 48.278 69.32z"/><path class="cls-6" d="M52.04 38.3l7.45-7.43.02 20.04-7.36 7.47-.06-20.03-.05-.05z"/><path class="cls-9 cls-10" d="M45.833 38.3l17.29-17.29L80.41 38.3 63.123 55.588z"/><path class="cls-11 cls-12" d="M17.868 1.106l45.99-8.275 6.858 38.11-45.992 8.274z"/><path class="cls-13 cls-14" d="M-.024 67.047l1.84-33.95L45.1 35.44l-1.84 33.952z"/><path class="cls-15" d="M105.39 51.48v-21.4H86.58v21.4h-9.6V.76h9.6v20.87h18.81V.76h9.59v50.72h-9.59z"/><path class="cls-16 cls-15" d="M138.08 52.24c-5.79 0-12.49-1.45-15.84-3l1.68-7.54a47.85 47.85 0 0 0 14.32 2.3c6.93 0 8.07-1.44 8.07-6.32 0-5.64-.15-6.09-9.29-8.07-12.26-2.74-13.93-5.1-13.93-15.84 0-9.2 4.18-13.77 17-13.77a69.25 69.25 0 0 1 14.77 1.67l-1.07 8.07a66.37 66.37 0 0 0-13.55-1.52c-6.47 0-7.62 1.37-7.62 5.79 0 5.78.15 5.94 8.91 8.07 13.63 3.28 14.32 5.49 14.32 15.61 0 9.6-2.82 14.55-17.82 14.55"/><path class="cls-15" d="M163.27.76h31.07v8.45h-21.47v12.26h19.8v8.46h-19.8v13.1h21.47v8.45h-31.07V.76z"/><g class="cls-17"><path class="cls-17 cls-18" d="M76.5 61.43c0-1.71 1-2.7 3.31-2.7a10.51 10.51 0 0 1 2.53.31l-.2 1.52a13.75 13.75 0 0 0-2.28-.24c-1.22 0-1.61.42-1.61 1.41v3.58c0 1 .39 1.41 1.61 1.41a13.75 13.75 0 0 0 2.28-.24l.2 1.52a10.51 10.51 0 0 1-2.53.31c-2.32 0-3.31-1-3.31-2.7zM99.3 65.45c0 1.55-.89 2.87-3.52 2.87s-3.52-1.32-3.52-2.87V61.6c0-1.55.89-2.87 3.52-2.87S99.3 60 99.3 61.6zm-5.3-.09c0 .88.45 1.41 1.76 1.41s1.76-.53 1.76-1.41v-3.67c0-.88-.45-1.41-1.76-1.41S94 60.81 94 61.69z"/><g class="cls-17"><path class="cls-18" d="M111.55 61.12v7.06h-1.72v-9.31h2.35l3.54 7.07v-7.07h1.72v9.31h-2.35zM130.7 68.32a7.85 7.85 0 0 1-2.91-.56l.31-1.38a8.77 8.77 0 0 0 2.63.43c1.27 0 1.48-.27 1.48-1.16s0-1.12-1.71-1.48c-2.25-.5-2.56-.94-2.56-2.91 0-1.69.77-2.53 3.13-2.53a12.67 12.67 0 0 1 2.71.31l-.2 1.48a12.21 12.21 0 0 0-2.49-.28c-1.19 0-1.4.25-1.4 1.06 0 1.06 0 1.09 1.64 1.48 2.5.6 2.63 1 2.63 2.87s-.51 2.67-3.26 2.67z"/></g><g class="cls-17"><path class="cls-18" d="M144.4 58.87h5.7v1.55h-3.94v2.25h3.63v1.55h-3.63v2.4h3.94v1.55h-5.7zM162.39 68.18h-1.76v-9.31h1.76z"/></g><path class="cls-17 cls-18" d="M175 66.63h3.83v1.55h-5.63v-9.31h1.8zM191.45 68.32a7.85 7.85 0 0 1-2.91-.56l.31-1.38a8.76 8.76 0 0 0 2.63.43c1.27 0 1.48-.27 1.48-1.16s0-1.12-1.71-1.48c-2.25-.5-2.56-.94-2.56-2.91 0-1.69.77-2.53 3.13-2.53a12.69 12.69 0 0 1 2.71.31l-.2 1.48a12.2 12.2 0 0 0-2.49-.28c-1.19 0-1.4.25-1.4 1.06 0 1.06 0 1.09 1.63 1.48 2.5.6 2.63 1 2.63 2.87s-.5 2.67-3.25 2.67z"/></g></svg>